<svg xmlns="http://www.w3.org/2000/svg" width="512" height="512" viewBox="0 0 512 512">
  <defs>
    <linearGradient id="bgGrad" x1="0%" y1="0%" x2="100%" y2="100%">
      <stop offset="0%" style="stop-color:#3D7A5A;stop-opacity:1" />
      <stop offset="100%" style="stop-color:#2D5E43;stop-opacity:1" />
    </linearGradient>
    <linearGradient id="leafGrad" x1="0%" y1="0%" x2="100%" y2="100%">
      <stop offset="0%" style="stop-color:#ffffff;stop-opacity:0.95" />
      <stop offset="100%" style="stop-color:#c8e6d4;stop-opacity:0.9" />
    </linearGradient>
  </defs>
  
  <rect width="512" height="512" rx="100" ry="100" fill="url(#bgGrad)"/>
  <rect width="512" height="512" rx="100" ry="100" fill="rgba(255,255,255,0.03)"/>
  <ellipse cx="220" cy="230" rx="105" ry="80" fill="url(#leafGrad)" transform="rotate(-15, 220, 230)"/>
  <circle cx="185" cy="215" r="8" fill="rgba(61,122,90,0.25)"/>
  <circle cx="240" cy="200" r="6" fill="rgba(61,122,90,0.2)"/>
  <circle cx="255" cy="245" r="7" fill="rgba(61,122,90,0.22)"/>
  <path d="M 225 155 C 210 130 180 120 175 100 C 195 105 215 120 225 140" fill="#6AAF85" opacity="0.9"/>
  <path d="M 225 155 C 240 130 265 118 272 98 C 250 105 232 120 225 140" fill="#4D9470" opacity="0.85"/>
  <line x1="225" y1="155" x2="225" y2="175" stroke="#5A9E6F" stroke-width="4" stroke-linecap="round"/>
  <rect x="315" y="160" width="90" height="8" rx="4" fill="rgba(255,255,255,0.5)"/>
  <rect x="315" y="178" width="70" height="8" rx="4" fill="rgba(255,255,255,0.4)"/>
  <rect x="315" y="196" width="80" height="8" rx="4" fill="rgba(255,255,255,0.4)"/>
  <rect x="315" y="214" width="60" height="8" rx="4" fill="rgba(255,255,255,0.3)"/>
  <line x1="315" y1="230" x2="405" y2="230" stroke="rgba(255,255,255,0.5)" stroke-width="2"/>
  <rect x="315" y="242" width="90" height="10" rx="5" fill="rgba(255,255,255,0.75)"/>
  <text x="256" y="355" font-family="'Helvetica Neue', Arial, sans-serif" font-size="68" font-weight="700" fill="white" text-anchor="middle" letter-spacing="-1">Factu</text>
  <text x="256" y="420" font-family="'Helvetica Neue', Arial, sans-serif" font-size="68" font-weight="300" fill="rgba(255,255,255,0.85)" text-anchor="middle" letter-spacing="2">papa</text>
  <ellipse cx="256" cy="490" rx="180" ry="20" fill="rgba(255,255,255,0.05)"/>
</svg>
